<svg width="46" height="40" viewBox="0 0 46 40" fill="none" xmlns="http://www.w3.org/2000/svg">
<path d="M24.7354 2.48743H28.7153L29.5445 4.31155L30.7053 7.79396L30.8711 7.95979L31.3686 12.4372L31.5344 12.603V13.4322L31.3686 13.598V16.7487L31.5344 16.9146V17.7437L31.3686 17.9095V21.0603L31.5344 22.0553L31.3686 22.2211V25.3718L31.5344 26.3668L31.3686 26.5327V29.8492L31.5344 30.6784L30.5395 32.1708L29.5445 32.8342L29.047 33H16.6098L15.6148 32.5025L14.7857 31.5075L14.2882 30.8442L14.454 29.6834V26.6985L14.2882 26.5327V25.5377L14.454 25.3718V22.3869L14.2882 21.2261L14.454 21.0603V18.0754L14.2882 16.9146L14.454 16.7487L14.6199 13.598L15.2832 12.2713L17.439 10.2814L19.2631 8.78893L20.4239 7.4623L21.253 6.96481L22.5797 5.80401L24.0721 3.64823L24.7354 2.48743Z" fill="#ED2630"/>
<path d="M24.9013 0H28.5495L28.8812 0.165829V2.15578L28.7154 2.32161H24.7355V0.165829L24.9013 0Z" fill="#ED2630"/>
<path d="M28.7323 18.6476H25.3202C25.269 17.4774 24.5342 16.8923 23.1157 16.8923C21.8761 16.8923 21.2563 17.3112 21.2563 18.1489C21.2563 18.5346 21.4224 18.8138 21.7547 18.9867C22.0358 19.133 22.9368 19.4056 24.4575 19.8045C25.9016 20.1902 26.9495 20.5957 27.6013 21.0213C28.7259 21.7394 29.2882 22.8165 29.2882 24.2527C29.2882 25.8218 28.694 27.0319 27.5055 27.883C26.4703 28.6277 25.1093 29 23.4224 29C21.3777 29 19.8186 28.488 18.7451 27.4641C17.7994 26.5731 17.3138 25.363 17.2882 23.8338H20.892C20.9687 25.3497 21.8569 26.1077 23.5566 26.1077C24.9496 26.1077 25.646 25.6223 25.646 24.6516C25.646 24.1995 25.4607 23.867 25.0901 23.6543C24.7323 23.4282 23.8313 23.1024 22.3873 22.6769C20.6365 22.1582 19.4607 21.633 18.8601 21.1011C18.1572 20.4761 17.8058 19.5718 17.8058 18.3883C17.8058 16.9787 18.3681 15.8684 19.4927 15.0572C20.4767 14.3524 21.7355 14 23.269 14C25.0965 14 26.4895 14.4588 27.448 15.3763C28.2786 16.1742 28.7067 17.2646 28.7323 18.6476Z" fill="white"/>
<path d="M45.8227 36.0707V38.3014C45.8227 38.6484 45.7649 38.9095 45.6492 39.0846C45.4377 39.3985 45.0626 39.5555 44.524 39.5555C43.754 39.5555 43.3343 39.2796 43.2649 38.7277H44.1076C44.1604 38.9161 44.3026 39.0102 44.5339 39.0102C44.709 39.0102 44.8313 38.9673 44.9007 38.8814C44.9734 38.7954 45.0098 38.6467 45.0098 38.4352V38.1527C44.8313 38.3939 44.5835 38.5145 44.2662 38.5145C43.9093 38.5145 43.6333 38.3873 43.4384 38.1328C43.2665 37.9114 43.1806 37.6239 43.1806 37.2703C43.1806 36.8605 43.2946 36.5383 43.5226 36.3037C43.7209 36.1021 43.9754 36.0013 44.286 36.0013C44.5934 36.0013 44.8346 36.1335 45.0098 36.3979V36.0707H45.8227ZM44.5141 36.6408C44.3587 36.6408 44.2348 36.697 44.1423 36.8093C44.053 36.9184 44.0084 37.0687 44.0084 37.2604C44.0084 37.4554 44.053 37.6107 44.1423 37.7264C44.2348 37.8387 44.3604 37.8949 44.519 37.8949C44.6743 37.8949 44.7966 37.8387 44.8858 37.7264C44.9784 37.614 45.0246 37.4603 45.0246 37.2654C45.0246 37.0704 44.9784 36.9184 44.8858 36.8093C44.7966 36.697 44.6727 36.6408 44.5141 36.6408Z" fill="#ED2630"/>
<path d="M41.01 36.0707V36.4127C41.2149 36.1385 41.4958 36.0013 41.8527 36.0013C42.1964 36.0013 42.4475 36.1153 42.6061 36.3433C42.7086 36.4954 42.7598 36.73 42.7598 37.0473V38.6434H41.9122V37.186C41.9122 37.0506 41.8989 36.9498 41.8725 36.8837C41.8196 36.7548 41.7023 36.6903 41.5206 36.6903C41.3223 36.6903 41.1835 36.7664 41.1042 36.9184C41.0612 36.9977 41.0397 37.115 41.0397 37.2703V38.6434H40.197V36.0707H41.01Z" fill="#ED2630"/>
<path d="M39.7662 38.6434H38.9086C38.8822 38.5608 38.8673 38.4798 38.864 38.4005C38.7053 38.6087 38.4245 38.7128 38.0213 38.7128C37.7205 38.7128 37.4892 38.6335 37.3273 38.4749C37.1852 38.3361 37.1141 38.1527 37.1141 37.9246C37.1141 37.6107 37.2529 37.3893 37.5305 37.2604C37.6495 37.2075 37.894 37.1464 38.2642 37.077L38.8491 36.9679V36.8143C38.8425 36.6259 38.712 36.5317 38.4575 36.5317C38.3187 36.5317 38.2163 36.5565 38.1502 36.6061C38.0874 36.6523 38.0461 36.7366 38.0262 36.8589H37.2281C37.2579 36.2872 37.671 36.0013 38.4674 36.0013C38.8904 36.0013 39.2077 36.0773 39.4192 36.2293C39.5183 36.3053 39.5861 36.3913 39.6224 36.4871C39.6588 36.5796 39.6769 36.7217 39.6769 36.9134C39.6769 36.9465 39.6753 37.0489 39.672 37.2207V37.2753L39.667 37.7016C39.667 37.8172 39.667 37.8949 39.667 37.9346C39.667 37.9742 39.6654 38.037 39.6621 38.1229C39.6621 38.1692 39.6621 38.2055 39.6621 38.232C39.6621 38.417 39.6968 38.5542 39.7662 38.6434ZM38.859 37.4686L38.4724 37.5529C38.2708 37.5991 38.1369 37.6454 38.0708 37.6917C38.0048 37.7379 37.9717 37.8073 37.9717 37.8999C37.9717 38.1015 38.0857 38.2022 38.3137 38.2022C38.5054 38.2022 38.6541 38.1345 38.7599 37.999C38.8194 37.9263 38.8508 37.8106 38.8541 37.652L38.859 37.4686Z" fill="#ED2630"/>
<path d="M34.9983 35.0942V36.4078C35.1999 36.1368 35.4709 36.0013 35.8113 36.0013C36.1583 36.0013 36.4128 36.117 36.5747 36.3483C36.6771 36.5003 36.7284 36.725 36.7284 37.0225V38.6434H35.8857V37.1761C35.8857 37.0076 35.8592 36.8903 35.8063 36.8242C35.7336 36.735 35.6246 36.6903 35.4792 36.6903C35.2908 36.6903 35.1537 36.7664 35.0677 36.9184C35.0215 36.9977 34.9983 37.1431 34.9983 37.3546V38.6434H34.1556V35.0942H34.9983Z" fill="#ED2630"/>
<path d="M31.8663 35.0942V36.4078C32.0678 36.1368 32.3388 36.0013 32.6792 36.0013C33.0262 36.0013 33.2807 36.117 33.4426 36.3483C33.545 36.5003 33.5963 36.725 33.5963 37.0225V38.6434H32.7536V37.1761C32.7536 37.0076 32.7271 36.8903 32.6743 36.8242C32.6016 36.735 32.4925 36.6903 32.3471 36.6903C32.1587 36.6903 32.0216 36.7664 31.9357 36.9184C31.8894 36.9977 31.8663 37.1431 31.8663 37.3546V38.6434H31.0236V35.0942H31.8663Z" fill="#ED2630"/>
<path d="M28.7141 36.0707V36.4127C28.919 36.1385 29.1999 36.0013 29.5568 36.0013C29.9005 36.0013 30.1517 36.1153 30.3103 36.3433C30.4128 36.4954 30.464 36.73 30.464 37.0473V38.6434H29.6163V37.186C29.6163 37.0506 29.6031 36.9498 29.5767 36.8837C29.5238 36.7548 29.4065 36.6903 29.2247 36.6903C29.0264 36.6903 28.8876 36.7664 28.8083 36.9184C28.7654 36.9977 28.7439 37.115 28.7439 37.2703V38.6434H27.9012V36.0707H28.7141Z" fill="#ED2630"/>
<path d="M27.3207 36.0707V38.6434H26.478V36.0707H27.3207ZM26.8993 35C27.0051 35 27.0959 35.038 27.172 35.114C27.248 35.1867 27.286 35.2776 27.286 35.3867C27.286 35.4924 27.248 35.5833 27.172 35.6593C27.0959 35.7353 27.0051 35.7733 26.8993 35.7733C26.7903 35.7733 26.6977 35.7353 26.6217 35.6593C26.549 35.5833 26.5127 35.4924 26.5127 35.3867C26.5127 35.2776 26.549 35.1867 26.6217 35.114C26.6977 35.038 26.7903 35 26.8993 35Z" fill="#ED2630"/>
<path d="M24.1886 35.0942V36.4078C24.3902 36.1368 24.6612 36.0013 25.0016 36.0013C25.3486 36.0013 25.6031 36.117 25.765 36.3483C25.8674 36.5003 25.9187 36.725 25.9187 37.0225V38.6434H25.076V37.1761C25.076 37.0076 25.0495 36.8903 24.9966 36.8242C24.9239 36.735 24.8149 36.6903 24.6695 36.6903C24.4811 36.6903 24.344 36.7664 24.258 36.9184C24.2118 36.9977 24.1886 37.1431 24.1886 37.3546V38.6434H23.3459V35.0942H24.1886Z" fill="#ED2630"/>
<path d="M22.9301 37.6322C22.8805 37.999 22.7285 38.2766 22.474 38.465C22.2526 38.6302 21.975 38.7128 21.6413 38.7128C21.205 38.7128 20.8613 38.574 20.6102 38.2964C20.3921 38.0552 20.283 37.7495 20.283 37.3794C20.283 36.9332 20.4235 36.5846 20.7044 36.3334C20.9522 36.112 21.2662 36.0013 21.6462 36.0013C22.0329 36.0013 22.3418 36.1038 22.5732 36.3086C22.7781 36.4904 22.8904 36.7217 22.9103 37.0026H22.0923C22.0494 36.7449 21.9056 36.616 21.6611 36.616C21.3141 36.616 21.1406 36.8688 21.1406 37.3744C21.1406 37.847 21.3091 38.0833 21.6462 38.0833C21.9139 38.0833 22.0709 37.9329 22.1171 37.6322H22.9301Z" fill="#ED2630"/>
<path d="M20.1195 36.0707V36.6259H19.5098V37.6867C19.5098 37.9247 19.6172 38.0437 19.832 38.0437C19.9576 38.0437 20.0567 38.0189 20.1294 37.9693L20.2781 38.5741C20.1162 38.6435 19.8799 38.6782 19.5693 38.6782C19.1859 38.6782 18.9298 38.5955 18.8009 38.4303C18.7448 38.3576 18.7084 38.2783 18.6919 38.1924C18.6754 38.1064 18.6671 37.9643 18.6671 37.7661V36.6259H18.2358V36.0707H18.6671V35.5255L19.5098 35.0843V36.0707H20.1195Z" fill="#ED2630"/>
<path d="M16.7715 38.7128C16.3385 38.7128 15.9948 38.5707 15.7404 38.2865C15.519 38.0387 15.4083 37.728 15.4083 37.3546C15.4083 36.925 15.5504 36.5829 15.8346 36.3285C16.0824 36.1104 16.3931 36.0013 16.7665 36.0013C17.2027 36.0013 17.5481 36.1418 17.8025 36.4227C18.0206 36.6639 18.1297 36.9729 18.1297 37.3496C18.1297 37.7825 17.9876 38.1262 17.7034 38.3807C17.4555 38.6021 17.1449 38.7128 16.7715 38.7128ZM16.7615 36.616C16.6029 36.616 16.4806 36.6804 16.3947 36.8093C16.3088 36.9382 16.2658 37.12 16.2658 37.3546C16.2658 37.8503 16.4344 38.0981 16.7715 38.0981C17.1085 38.0981 17.2771 37.8486 17.2771 37.3496C17.2771 36.8605 17.1052 36.616 16.7615 36.616Z" fill="#ED2630"/>
<path d="M13.2676 35.0942V36.4078C13.4692 36.1368 13.7402 36.0013 14.0806 36.0013C14.4276 36.0013 14.682 36.117 14.844 36.3483C14.9464 36.5003 14.9976 36.725 14.9976 37.0225V38.6434H14.1549V37.1761C14.1549 37.0076 14.1285 36.8903 14.0756 36.8242C14.0029 36.735 13.8939 36.6903 13.7485 36.6903C13.5601 36.6903 13.4229 36.7664 13.337 36.9184C13.2908 36.9977 13.2676 37.1431 13.2676 37.3546V38.6434H12.4249V35.0942H13.2676Z" fill="#ED2630"/>
<path d="M10.1155 36.0707V36.4127C10.3204 36.1385 10.6013 36.0013 10.9582 36.0013C11.3019 36.0013 11.5531 36.1153 11.7117 36.3433C11.8141 36.4954 11.8653 36.73 11.8653 37.0473V38.6434H11.0177V37.186C11.0177 37.0506 11.0045 36.9498 10.978 36.8837C10.9252 36.7548 10.8078 36.6903 10.6261 36.6903C10.4278 36.6903 10.289 36.7664 10.2097 36.9184C10.1667 36.9977 10.1453 37.115 10.1453 37.2703V38.6434H9.30255V36.0707H10.1155Z" fill="#ED2630"/>
<path d="M8.7232 36.0707V38.6435H7.87554V38.2965C7.71361 38.5741 7.44593 38.7128 7.0725 38.7128C6.74533 38.7128 6.49913 38.6054 6.3339 38.3906C6.21823 38.2419 6.1604 38.0056 6.1604 37.6818V36.0707H7.0031V37.4438C7.0031 37.6653 7.02458 37.8074 7.06754 37.8702C7.13364 37.9726 7.246 38.0238 7.40462 38.0238C7.5996 38.0238 7.7384 37.9429 7.82101 37.7809C7.85736 37.7049 7.87554 37.5661 7.87554 37.3645V36.0707H8.7232Z" fill="#ED2630"/>
<path d="M5.74937 38.6434H4.8918C4.86537 38.5608 4.8505 38.4798 4.84719 38.4005C4.68857 38.6087 4.40767 38.7128 4.00449 38.7128C3.70376 38.7128 3.47243 38.6335 3.3105 38.4749C3.1684 38.3361 3.09735 38.1527 3.09735 37.9246C3.09735 37.6107 3.23615 37.3893 3.51374 37.2604C3.63271 37.2075 3.87726 37.1464 4.24739 37.077L4.83232 36.9679V36.8143C4.82571 36.6259 4.69517 36.5317 4.44071 36.5317C4.30192 36.5317 4.19947 36.5565 4.13338 36.6061C4.07059 36.6523 4.02928 36.7366 4.00945 36.8589H3.21136C3.24111 36.2872 3.65419 36.0013 4.45063 36.0013C4.87363 36.0013 5.19088 36.0773 5.40238 36.2293C5.50152 36.3053 5.56927 36.3913 5.60562 36.4871C5.64197 36.5796 5.66015 36.7217 5.66015 36.9134C5.66015 36.9465 5.6585 37.0489 5.65519 37.2207V37.2753L5.65023 37.7016C5.65023 37.8172 5.65023 37.8949 5.65023 37.9346C5.65023 37.9742 5.64858 38.037 5.64528 38.1229C5.64528 38.1692 5.64528 38.2055 5.64528 38.232C5.64528 38.417 5.67998 38.5542 5.74937 38.6434ZM4.84223 37.4686L4.45558 37.5529C4.254 37.5991 4.12016 37.6454 4.05406 37.6917C3.98797 37.7379 3.95492 37.8073 3.95492 37.8999C3.95492 38.1015 4.06893 38.2022 4.29696 38.2022C4.48863 38.2022 4.63734 38.1345 4.74309 37.999C4.80258 37.9263 4.83397 37.8106 4.83728 37.652L4.84223 37.4686Z" fill="#ED2630"/>
<path d="M2.69168 35.0942V38.6434H1.84402V38.341C1.69531 38.5889 1.46233 38.7128 1.14508 38.7128C0.774953 38.7128 0.484139 38.5724 0.272638 38.2915C0.0908793 38.0436 0 37.7264 0 37.3397C0 36.9068 0.114012 36.5681 0.342037 36.3235C0.540319 36.1054 0.793129 35.9964 1.10047 35.9964C1.42102 35.9964 1.66887 36.1203 1.84402 36.3681V35.0942H2.69168ZM1.36319 36.6556C1.20126 36.6556 1.07568 36.7168 0.986454 36.8391C0.900531 36.958 0.85757 37.1266 0.85757 37.3447C0.85757 37.7974 1.02611 38.0238 1.36319 38.0238C1.52512 38.0238 1.6507 37.9643 1.73993 37.8453C1.83246 37.7231 1.87872 37.5562 1.87872 37.3447C1.87872 37.1299 1.83246 36.9613 1.73993 36.8391C1.64739 36.7168 1.52182 36.6556 1.36319 36.6556Z" fill="#ED2630"/>
</svg>
